<svg width="102" height="50" viewBox="0 0 102 50" fill="none" xmlns="http://www.w3.org/2000/svg">
<path d="M41.736 25.8728L39.7153 9.7616L37.6697 11.5623L39.7153 27.6734L41.736 25.8728Z" fill="white"/>
<path d="M46.6502 21.5363L45.5775 4.57214L43.457 6.46758L44.5048 23.4317L46.6502 21.5363Z" fill="white"/>
<path d="M32.9798 33.6434L29.163 19.0723L27.292 20.7545L31.0839 35.3019L32.9798 33.6434Z" fill="white"/>
<path d="M8.28296 20.2343L20.1326 45.017L21.854 43.477L11.2017 21.2294L8.28296 20.2343Z" fill="white"/>
<path d="M0 17.486L16.9139 47.8603L18.6102 46.3676L3.11834 18.5285L0 17.486Z" fill="white"/>
<path d="M29.0134 37.1504L24.4232 23.2664L22.6021 24.8775L27.1922 38.7615L29.0134 37.1504Z" fill="white"/>
<path d="M69.277 16.3714L67.3311 14.6418L64.4124 29.9001L66.3582 31.6297L69.277 16.3714Z" fill="white"/>
<path d="M63.913 11.6089L61.8674 9.83191L59.8467 25.872L61.8923 27.6727L63.913 11.6089Z" fill="white"/>
<path d="M15.7922 22.7692L23.5507 41.9841L25.3219 40.4204L18.5863 23.6932L15.7922 22.7692Z" fill="white"/>
<path d="M70.4999 35.303L74.2918 20.8029L72.4208 19.1207L68.6289 33.6445L70.4999 35.303Z" fill="white"/>
<path d="M74.3919 38.7615L78.9821 24.9248L77.161 23.3137L72.5708 37.1504L74.3919 38.7615Z" fill="white"/>
<path d="M51.9149 18.8359V1.0188L50.7673 0L49.6697 0.971409V18.8359L50.7923 17.8408L51.9149 18.8359Z" fill="white"/>
<path d="M58.1505 6.51517L56.005 4.64343L54.9573 21.5365L57.1027 23.4319L58.1505 6.51517Z" fill="white"/>
<path d="M37.1957 29.9001L34.252 14.5945L32.3062 16.3241L35.2499 31.6297L37.1957 29.9001Z" fill="white"/>
<path d="M83.0482 23.6688L76.2876 40.4197L78.0588 41.9834L85.8172 22.7448L83.0482 23.6688Z" fill="white"/>
<path d="M98.4902 18.504L82.9983 46.3669L84.6947 47.8595L101.609 17.4615L98.4902 18.504Z" fill="white"/>
<path d="M90.4064 21.2049L79.7292 43.4763L81.4755 45.0163L93.3502 20.2098L90.4064 21.2049Z" fill="white"/>
<path d="M47.9063 47.6748L47.2596 43.5183L46.605 43.9829L47.2596 48.1394L47.9063 47.6748Z" fill="white"/>
<path d="M49.4789 46.5564L49.1356 42.1798L48.457 42.6688L48.7923 47.0454L49.4789 46.5564Z" fill="white"/>
<path d="M56.7198 45.2237L56.0971 44.7775L55.1631 48.7139L55.7858 49.1601L56.7198 45.2237Z" fill="white"/>
<path d="M55.0032 43.9951L54.3486 43.5366L53.7019 47.6748L54.3565 48.1393L55.0032 43.9951Z" fill="white"/>
<path d="M51.1636 45.8594V41.2628L50.7963 41L50.4451 41.2506V45.8594L50.8043 45.6027L51.1636 45.8594Z" fill="white"/>
<path d="M53.1591 42.681L52.4725 42.1981L52.1372 46.5563L52.8238 47.0453L53.1591 42.681Z" fill="white"/>
<path d="M46.4532 48.7139L45.5111 44.7653L44.8884 45.2115L45.8305 49.1601L46.4532 48.7139Z" fill="white"/>
<path d="M44.5505 41.0196L43.1551 31.0441L41.7424 32.159L43.1551 42.1345L44.5505 41.0196Z" fill="white"/>
<path d="M47.9441 38.3347L47.2033 27.8311L45.739 29.0046L46.4626 39.5082L47.9441 38.3347Z" fill="white"/>
<path d="M38.5038 45.8308L35.868 36.8088L34.5759 37.8504L37.1945 46.8577L38.5038 45.8308Z" fill="white"/>
<path d="M35.7646 48.0022L32.5948 39.4056L31.3372 40.4032L34.507 48.9997L35.7646 48.0022Z" fill="white"/>
<path d="M63.5693 35.1368L62.2256 34.0659L60.21 43.5133L61.5537 44.5842L63.5693 35.1368Z" fill="white"/>
<path d="M59.8652 32.1878L58.4525 31.0875L57.0571 41.019L58.4698 42.1339L59.8652 32.1878Z" fill="white"/>
<path d="M64.4139 46.8582L67.0324 37.8803L65.7404 36.8387L63.1218 45.8314L64.4139 46.8582Z" fill="white"/>
<path d="M67.1013 48.9997L70.2712 40.4325L69.0136 39.4349L65.8438 48.0021L67.1013 48.9997Z" fill="white"/>
<path d="M51.5795 36.6625V25.6308L50.7871 25L50.0291 25.6015V36.6625L50.8043 36.0464L51.5795 36.6625Z" fill="white"/>
<path d="M55.8858 29.0339L54.4042 27.875L53.6807 38.3346L55.1622 39.5082L55.8858 29.0339Z" fill="white"/>
<path d="M41.4149 43.5132L39.3821 34.0365L38.0383 35.1074L40.0712 44.5841L41.4149 43.5132Z" fill="white"/>
</svg>
